<?xml version="1.0" encoding="UTF-8"?>
<svg xmlns="http://www.w3.org/2000/svg" xmlns:xlink="http://www.w3.org/1999/xlink" width="16pt" height="16pt" viewBox="0 0 16 16" version="1.1">
<g id="surface1">
<path style=" stroke:none;fill-rule:nonzero;fill:rgb(0%,0%,0%);fill-opacity:1;" d="M 13.472656 6.371094 C 13.429688 6.371094 13.382812 6.355469 13.347656 6.328125 C 13.230469 6.242188 13.117188 6.160156 13 6.082031 C 12.9375 6.039062 12.902344 5.964844 12.90625 5.886719 C 12.910156 5.808594 12.957031 5.742188 13.027344 5.707031 C 13.097656 5.671875 13.179688 5.679688 13.242188 5.722656 C 13.363281 5.804688 13.484375 5.890625 13.601562 5.980469 C 13.679688 6.035156 13.707031 6.132812 13.679688 6.21875 C 13.648438 6.308594 13.566406 6.367188 13.472656 6.367188 Z M 13.472656 6.371094 "/>
<path style=" stroke:none;fill-rule:nonzero;fill:rgb(0%,0%,0%);fill-opacity:1;" d="M 8 11.84375 C 7.625 11.84375 7.246094 11.820312 6.875 11.773438 L 6.863281 11.769531 C 4.457031 11.464844 2.191406 10.15625 0.480469 8.089844 C 0.414062 8.011719 0.414062 7.894531 0.480469 7.816406 C 2.433594 5.457031 5.035156 4.125 7.804688 4.066406 C 7.933594 4.0625 8.066406 4.058594 8.199219 4.066406 C 9.652344 4.097656 11.078125 4.480469 12.351562 5.179688 C 12.453125 5.238281 12.492188 5.367188 12.4375 5.472656 C 12.378906 5.578125 12.25 5.617188 12.144531 5.5625 C 10.929688 4.890625 9.574219 4.527344 8.1875 4.496094 C 8.058594 4.492188 7.941406 4.492188 7.816406 4.496094 C 5.222656 4.554688 2.789062 5.777344 0.929688 7.953125 C 2.554688 9.847656 4.664062 11.050781 6.902344 11.339844 C 6.910156 11.339844 6.921875 11.34375 6.933594 11.34375 C 7.640625 11.433594 8.359375 11.433594 9.066406 11.34375 C 9.078125 11.34375 9.089844 11.339844 9.097656 11.339844 C 11.335938 11.050781 13.449219 9.847656 15.070312 7.953125 C 14.78125 7.617188 14.476562 7.300781 14.152344 7 C 14.0625 6.921875 14.058594 6.785156 14.136719 6.695312 C 14.21875 6.605469 14.355469 6.601562 14.445312 6.679688 C 14.828125 7.035156 15.1875 7.414062 15.519531 7.8125 C 15.585938 7.894531 15.585938 8.007812 15.519531 8.089844 C 13.808594 10.15625 11.542969 11.460938 9.136719 11.769531 L 9.125 11.773438 C 8.753906 11.820312 8.375 11.84375 8 11.84375 Z M 8 11.84375 "/>
<path style=" stroke:none;fill-rule:nonzero;fill:rgb(0%,0%,0%);fill-opacity:1;" d="M 8 11.9375 C 5.824219 11.9375 4.0625 10.175781 4.0625 8 C 4.0625 5.824219 5.824219 4.0625 8 4.0625 C 10.175781 4.0625 11.9375 5.824219 11.9375 8 C 11.9375 10.175781 10.175781 11.9375 8 11.9375 Z M 8 4.492188 C 6.0625 4.492188 4.492188 6.0625 4.492188 8 C 4.492188 9.9375 6.0625 11.507812 8 11.507812 C 9.9375 11.507812 11.507812 9.9375 11.507812 8 C 11.503906 6.0625 9.9375 4.496094 8 4.492188 Z M 8 4.492188 "/>
<path style=" stroke:none;fill-rule:nonzero;fill:rgb(0%,0%,0%);fill-opacity:1;" d="M 8 9.835938 C 6.984375 9.835938 6.164062 9.015625 6.164062 8 C 6.164062 6.984375 6.984375 6.164062 8 6.164062 C 9.015625 6.164062 9.835938 6.984375 9.835938 8 C 9.835938 9.015625 9.015625 9.835938 8 9.835938 Z M 8 6.59375 C 7.222656 6.59375 6.59375 7.222656 6.59375 8 C 6.59375 8.777344 7.222656 9.40625 8 9.40625 C 8.777344 9.40625 9.40625 8.777344 9.40625 8 C 9.40625 7.222656 8.777344 6.59375 8 6.59375 Z M 8 6.59375 "/>
</g>
</svg>
