<svg id="Icons" height="512" viewBox="0 0 74 74" width="512" xmlns="http://www.w3.org/2000/svg"><path d="m62.319 29.461a1 1 0 0 1 -.594-.2c-.528-.391-1.056-.772-1.593-1.134a1 1 0 1 1 1.117-1.659c.563.378 1.114.777 1.667 1.186a1 1 0 0 1 -.6 1.8z"/><path d="m37 54.781a40.876 40.876 0 0 1 -5.208-.333l-.049-.005c-11.123-1.424-21.6-7.471-29.514-17.024a1 1 0 0 1 0-1.275c9.025-10.906 21.05-17.065 33.86-17.343.6-.02 1.212-.021 1.835 0a41.673 41.673 0 0 1 19.193 5.16 1 1 0 1 1 -.955 1.758 39.709 39.709 0 0 0 -18.293-4.919c-.6-.02-1.148-.02-1.724 0-11.982.259-23.253 5.926-31.838 15.98 7.5 8.771 17.272 14.323 27.613 15.668a1.3 1.3 0 0 1 .14.017 38.893 38.893 0 0 0 9.88 0 1.3 1.3 0 0 1 .14-.017c10.34-1.345 20.114-6.9 27.613-15.668a50.75 50.75 0 0 0 -4.239-4.4 1 1 0 0 1 1.352-1.48 53.063 53.063 0 0 1 4.964 5.239 1 1 0 0 1 0 1.276c-7.91 9.553-18.391 15.6-29.514 17.024l-.049.005a40.876 40.876 0 0 1 -5.207.337z"/><path d="m37 55.219a18.219 18.219 0 1 1 18.219-18.219 18.24 18.24 0 0 1 -18.219 18.219zm0-34.438a16.219 16.219 0 1 0 16.219 16.219 16.238 16.238 0 0 0 -16.219-16.219z"/><path d="m37 45.5a8.5 8.5 0 1 1 8.5-8.5 8.51 8.51 0 0 1 -8.5 8.5zm0-15a6.5 6.5 0 1 0 6.5 6.5 6.508 6.508 0 0 0 -6.5-6.5z"/></svg>