<?xml version="1.0" encoding="utf-8"?>
<!-- Generator: Adobe Illustrator 21.0.0, SVG Export Plug-In . SVG Version: 6.00 Build 0)  -->
<svg version="1.1" id="Слой_1" xmlns="http://www.w3.org/2000/svg" xmlns:xlink="http://www.w3.org/1999/xlink" x="0px" y="0px"
	 viewBox="0 0 975 645" style="enable-background:new 0 0 975 645;" xml:space="preserve">
<style type="text/css">
	.st0{fill:#A4A4A4;}
	.st1{fill:#C3C3C3;}
	.st2{fill:#343A40;}
</style>
<path class="st0" d="M165,168c0-1.7,1.3-3,3-3h120c14.9,0,27,12.1,27,27v96c0,14.9-12.1,27-27,27h-96c-14.9,0-27-12.1-27-27V168z"/>
<path class="st0" d="M330,168c0-1.7,1.3-3,3-3h120c14.9,0,27,12.1,27,27v96c0,14.9-12.1,27-27,27h-96c-14.9,0-27-12.1-27-27V168z"/>
<path class="st0" d="M330,333c0-1.7,1.3-3,3-3h120c14.9,0,27,12.1,27,27v96c0,14.9-12.1,27-27,27h-96c-14.9,0-27-12.1-27-27V333z"/>
<path class="st1" d="M495,3c0-1.7,1.3-3,3-3h120c14.9,0,27,12.1,27,27v96c0,14.9-12.1,27-27,27h-96c-14.9,0-27-12.1-27-27V3z"/>
<path class="st1" d="M330,498c0-1.7,1.3-3,3-3h120c14.9,0,27,12.1,27,27v96c0,14.9-12.1,27-27,27h-96c-14.9,0-27-12.1-27-27V498z"/>
<path class="st1" d="M495,168c0-1.7,1.3-3,3-3h120c14.9,0,27,12.1,27,27v96c0,14.9-12.1,27-27,27h-96c-14.9,0-27-12.1-27-27V168z"/>
<path class="st1" d="M0,168c0-1.7,1.3-3,3-3h120c14.9,0,27,12.1,27,27v96c0,14.9-12.1,27-27,27H27c-14.9,0-27-12.1-27-27V168z"/>
<path class="st1" d="M165,333c0-1.7,1.3-3,3-3h120c14.9,0,27,12.1,27,27v96c0,14.9-12.1,27-27,27h-96c-14.9,0-27-12.1-27-27V333z"/>
<path class="st0" d="M495,333c0-1.7,1.3-3,3-3h120c14.9,0,27,12.1,27,27v96c0,14.9-12.1,27-27,27h-96c-14.9,0-27-12.1-27-27V333z"/>
<path class="st0" d="M660,333c0-1.7,1.3-3,3-3h122c13.8,0,25,11.2,25,25v100c0,13.8-11.2,25-25,25H685c-13.8,0-25-11.2-25-25V333z"
	/>
<path class="st0" d="M825,333c0-1.7,1.3-3,3-3h122c13.8,0,25,11.2,25,25v100c0,13.8-11.2,25-25,25H850c-13.8,0-25-11.2-25-25V333z"
	/>
<path class="st2" d="M223.7,258.6c-0.8,4.8-1.1,9-1.1,11.4c0,9.6,5.8,15,14,15c11.6,0,20.3-11.4,21.5-17.8c0.4-2.2-0.7-3.1-2.3-3.1
	c-3.1,6.5-8.5,10.4-12.6,10.4c-4.3,0-6.4-3.4-5.2-10.6l4.7-27.1c1.4-8.4,0.4-11.9-8.9-11.9c-4.4,0-6.2,1.1-6.2,1.1s1.2,2.6-0.1,10.3
	L223.7,258.6z M231.7,207c0,4.2,2.9,7.2,7.2,7.2c5.3,0,8.6-4.1,8.6-8.3c0-4.3-2.9-7.6-7.4-7.6C235.6,198.4,231.7,202.1,231.7,207z"
	/>
<path class="st2" d="M387.4,219c-2.6,0-4.1,1.4-4.1,3.5c0,1.6,0.8,2.5,0.8,2.5h7.8l-4.4,25.3c-1.1,6.1-1.3,10.1-1.3,12.8
	c0,9.6,7,15.8,15.8,15.8c11.4,0,21.1-10.4,22.9-17.8c0.5-2-0.6-3.1-2.2-3.1c-2.6,5-7.6,10.4-14.4,10.4c-5.6,0-8-4-6.8-10.6l5.8-33
	h9.7c2.6,0,4.1-1.4,4.1-3.5c0-1.6-0.8-2.5-0.8-2.5h-11.9l1.1-6c1.6-8.4,0.4-11.9-8.9-11.9c-4.4,0-6.2,1.1-6.2,1.1s1.3,2.8-0.1,10.3
	L393,219H387.4z"/>
<path class="st2" d="M572.5,448h-13l11.2-69.8l-19.9,9.8l2-12.8l21.5-11.2h11.5L572.5,448z"/>
<path class="st2" d="M407.5,448h-13l11.2-69.8l-19.9,9.8l2-12.8l21.5-11.2h11.5L407.5,448z"/>
<path class="st2" d="M733.7,393c8.8,0,15.8,2.4,21,7.3c5.3,4.8,7.9,10.8,7.9,18c0,9.4-3.5,16.8-10.6,22.2c-7,5.4-15.8,8-26.2,8
	c-10.3,0-18.6-2.2-25-6.6l1.9-12.5c6.6,4.9,14.3,7.3,23,7.3c6.1,0,11.5-1.5,16.2-4.6c4.8-3,7.2-7.4,7.2-13.3c0-4.5-1.8-8.2-5.5-11
	s-8.7-4.3-15.1-4.3c-5.8,0-12,1-18.8,2.9l11.9-43.4h43.8l-1.7,11.6h-34l-5.3,19.2C726.9,393.3,729.9,393,733.7,393z"/>
<path class="st2" d="M918.7,405.6c9.4,3.8,14,10.3,14,19.3c0,7.9-3.2,14.2-9.7,18.8c-6.3,4.6-14.6,6.8-24.8,6.8
	c-5,0-9.8-0.8-14.5-2.5c-4.6-1.6-8.6-4.3-12-8.2c-3.4-3.8-5-8.4-5-13.7c0-5.6,1.8-10.4,5.4-14.5c3.6-4.2,8.5-7,14.8-8.5
	c-7-3.5-10.4-9-10.4-16.3c0-7,2.9-12.6,8.6-16.9c5.8-4.3,12.6-6.5,20.6-6.5c7.4,0,14,1.9,19.8,5.8c5.9,3.8,8.9,9.1,8.9,16.1
	c0,4.7-1.4,8.9-4.2,12.5C927.3,401.3,923.5,403.9,918.7,405.6z M905.3,374.5c-4.2,0-8,1.2-11.4,3.5c-3.3,2.3-4.9,5.6-4.9,9.7
	c0,3.8,1.6,6.8,4.7,9c3.2,2.2,6.9,3.4,11.2,3.4c4.2,0,8-1.2,11.4-3.5c3.4-2.4,5-5.7,5-9.8c0-3.7-1.6-6.6-4.7-8.9
	C913.5,375.6,909.8,374.5,905.3,374.5z M919.2,424c0-4-1.8-7.3-5.5-10c-3.6-2.6-8.1-4-13.6-4c-5.3,0-9.9,1.4-13.8,4.1
	c-3.8,2.6-5.8,6.3-5.8,10.9c0,4.3,1.9,7.8,5.6,10.4c3.9,2.6,8.4,3.8,13.4,3.8c5.1,0,9.6-1.4,13.6-4.1
	C917.2,432.5,919.2,428.8,919.2,424z"/>
</svg>
