<svg width="975" height="645" viewBox="0 0 975 645" fill="none" xmlns="http://www.w3.org/2000/svg">
<path d="M165 168C165 166.343 166.343 165 168 165H288C302.912 165 315 177.088 315 192V288C315 302.912 302.912 315 288 315H192C177.088 315 165 302.912 165 288V168Z" fill="#17A2B8"/>
<path d="M330 168C330 166.343 331.343 165 333 165H453C467.912 165 480 177.088 480 192V288C480 302.912 467.912 315 453 315H357C342.088 315 330 302.912 330 288V168Z" fill="#17A2B8"/>
<path d="M330 333C330 331.343 331.343 330 333 330H453C467.912 330 480 342.088 480 357V453C480 467.912 467.912 480 453 480H357C342.088 480 330 467.912 330 453V333Z" fill="#17A2B8"/>
<path d="M495 3C495 1.34314 496.343 0 498 0H618C632.912 0 645 12.0883 645 27V123C645 137.912 632.912 150 618 150H522C507.088 150 495 137.912 495 123V3Z" fill="#D1ECF1"/>
<path d="M330 498C330 496.343 331.343 495 333 495H453C467.912 495 480 507.088 480 522V618C480 632.912 467.912 645 453 645H357C342.088 645 330 632.912 330 618V498Z" fill="#D1ECF1"/>
<path d="M495 168C495 166.343 496.343 165 498 165H618C632.912 165 645 177.088 645 192V288C645 302.912 632.912 315 618 315H522C507.088 315 495 302.912 495 288V168Z" fill="#D1F1DA"/>
<path d="M0 168C0 166.343 1.34315 165 3 165H123C137.912 165 150 177.088 150 192V288C150 302.912 137.912 315 123 315H27C12.0883 315 0 302.912 0 288V168Z" fill="#D1F1DA"/>
<path d="M165 333C165 331.343 166.343 330 168 330H288C302.912 330 315 342.088 315 357V453C315 467.912 302.912 480 288 480H192C177.088 480 165 467.912 165 453V333Z" fill="#D1F1DA"/>
<path d="M495 333C495 331.343 496.343 330 498 330H618C632.912 330 645 342.088 645 357V453C645 467.912 632.912 480 618 480H522C507.088 480 495 467.912 495 453V333Z" fill="#17A2B8"/>
<path d="M660 333C660 331.343 661.343 330 663 330H785C798.807 330 810 341.193 810 355V455C810 468.807 798.807 480 785 480H685C671.193 480 660 468.807 660 455V333Z" fill="#17A2B8"/>
<path d="M825 333C825 331.343 826.343 330 828 330H950C963.807 330 975 341.193 975 355V455C975 468.807 963.807 480 950 480H850C836.193 480 825 468.807 825 455V333Z" fill="#17A2B8"/>
<path d="M223.684 258.6C222.844 263.4 222.604 267.6 222.604 270C222.604 279.6 228.364 285 236.644 285C248.284 285 256.924 273.6 258.124 267.24C258.484 265.08 257.404 264.12 255.844 264.12C252.724 270.6 247.324 274.56 243.244 274.56C238.924 274.56 236.884 271.2 238.084 264L242.764 236.88C244.204 228.48 243.124 225 233.884 225C229.444 225 227.644 226.08 227.644 226.08C227.644 226.08 228.844 228.72 227.524 236.4L223.684 258.6ZM231.724 207C231.724 211.2 234.604 214.2 238.924 214.2C244.204 214.2 247.564 210.12 247.564 205.92C247.564 201.6 244.684 198.36 240.124 198.36C235.564 198.36 231.724 202.08 231.724 207Z" fill="white"/>
<path d="M387.409 219C384.769 219 383.329 220.44 383.329 222.48C383.329 224.04 384.169 225 384.169 225H391.969L387.529 250.32C386.449 256.44 386.209 260.4 386.209 263.16C386.209 272.76 393.169 279 402.049 279C413.449 279 423.169 268.56 424.969 261.24C425.449 259.2 424.369 258.12 422.809 258.12C420.169 263.16 415.249 268.56 408.409 268.56C402.769 268.56 400.369 264.6 401.569 258L407.329 225H417.049C419.689 225 421.129 223.56 421.129 221.52C421.129 219.96 420.289 219 420.289 219H408.409L409.489 213C411.049 204.6 409.849 201.12 400.609 201.12C396.169 201.12 394.369 202.2 394.369 202.2C394.369 202.2 395.689 204.96 394.249 212.52L393.049 219H387.409Z" fill="white"/>
<path d="M572.541 448H559.581L570.741 378.16L550.821 388L552.861 375.16L574.341 364H585.861L572.541 448Z" fill="white"/>
<path d="M407.541 448H394.581L405.741 378.16L385.821 388L387.861 375.16L409.341 364H420.861L407.541 448Z" fill="white"/>
<path d="M733.689 393C742.489 393 749.489 395.44 754.689 400.32C759.969 405.12 762.609 411.12 762.609 418.32C762.609 427.76 759.089 435.16 752.049 440.52C745.009 445.88 736.289 448.56 725.889 448.56C715.569 448.56 707.249 446.36 700.929 441.96L702.849 429.48C709.489 434.36 717.169 436.8 725.889 436.8C731.969 436.8 737.369 435.28 742.089 432.24C746.889 429.28 749.289 424.84 749.289 418.92C749.289 414.44 747.449 410.76 743.769 407.88C740.089 405 735.049 403.56 728.649 403.56C722.889 403.56 716.609 404.52 709.809 406.44L721.689 363H765.489L763.809 374.64H729.849L724.569 393.84C726.889 393.28 729.929 393 733.689 393Z" fill="white"/>
<path d="M918.729 405.56C928.089 409.4 932.769 415.84 932.769 424.88C932.769 432.8 929.529 439.08 923.049 443.72C916.729 448.28 908.449 450.56 898.209 450.56C893.249 450.56 888.409 449.72 883.689 448.04C879.129 446.44 875.129 443.72 871.689 439.88C868.329 436.04 866.649 431.48 866.649 426.2C866.649 420.6 868.449 415.76 872.049 411.68C875.649 407.52 880.569 404.68 886.809 403.16C879.849 399.64 876.369 394.2 876.369 386.84C876.369 379.88 879.249 374.24 885.009 369.92C890.769 365.6 897.649 363.44 905.649 363.44C913.009 363.44 919.609 365.36 925.449 369.2C931.369 372.96 934.329 378.32 934.329 385.28C934.329 390 932.929 394.16 930.129 397.76C927.329 401.28 923.529 403.88 918.729 405.56ZM905.289 374.48C901.129 374.48 897.329 375.64 893.889 377.96C890.609 380.28 888.969 383.52 888.969 387.68C888.969 391.44 890.529 394.44 893.649 396.68C896.849 398.92 900.569 400.04 904.809 400.04C908.969 400.04 912.769 398.88 916.209 396.56C919.569 394.16 921.249 390.88 921.249 386.72C921.249 383.04 919.689 380.08 916.569 377.84C913.529 375.6 909.769 374.48 905.289 374.48ZM919.209 424.04C919.209 420.04 917.369 416.72 913.689 414.08C910.089 411.44 905.569 410.12 900.129 410.12C894.849 410.12 890.249 411.48 886.329 414.2C882.489 416.84 880.569 420.48 880.569 425.12C880.569 429.44 882.449 432.92 886.209 435.56C890.129 438.12 894.609 439.4 899.649 439.4C904.769 439.4 909.289 438.04 913.209 435.32C917.209 432.52 919.209 428.76 919.209 424.04Z" fill="white"/>
</svg>
